<?xml version="1.0" encoding="utf-8"?>
<!-- Generator: Adobe Illustrator 16.0.0, SVG Export Plug-In . SVG Version: 6.00 Build 0)  -->
<!DOCTYPE svg PUBLIC "-//W3C//DTD SVG 1.1//EN" "http://www.w3.org/Graphics/SVG/1.1/DTD/svg11.dtd">
<svg version="1.1" id="Layer_1" xmlns="http://www.w3.org/2000/svg" xmlns:xlink="http://www.w3.org/1999/xlink" x="0px" y="0px"
	 width="300px" height="300px" viewBox="0 0 300 300" enable-background="new 0 0 300 300" xml:space="preserve">
<g>
	<path d="M108.6264648,144.6206055c0.3945313,0.7280273,0.8100586,1.4741211,1.2041016,2.2197266
		c0.1245117-0.2470703,8.7587891-17.4760742,13.8237305-25.7172852c-0.4145508-0.6425781-0.8300781-1.265625-1.2661133-1.9091797
		c-10.7099609-15.7543945-24.4511719-27.9179688-45.1049805-27.9389648H24v24.9082031h53.2626953
		C90.0488281,116.2045898,98.9331055,127.019043,108.6264648,144.6206055z"/>
	<path d="M221.0458984,193.3164063h-42.0732422c-13.0146484,0-21.9824219-10.8359375-31.7382813-28.4570313
		c-0.4150391-0.7285156-0.809082-1.4736328-1.2036133-2.2216797c-0.1865234,0.3544922-0.3740234,0.7275391-0.5605469,1.1005859
		c-4.0063477,7.9697266-8.2822266,16.5224609-13.2426758,24.6162109c0.4145508,0.6445313,0.8300781,1.2890625,1.2861328,1.9091797
		c9.8598633,14.4697266,22.3349609,25.90625,40.3945313,27.7119141l0.2695313,0.25h46.8681641v22.3339844l60.2382813-34.7880859
		l-60.2382813-34.7685547V193.3164063z"/>
	<path d="M178.9726563,116.1831055h42.0732422v22.3139648l60.2382813-34.7680664l-60.2382813-34.7885742v22.3344727
		l-47.1171875,0.2490234c-21.6298828,2.1376953-35.2255859,18.0795898-45.9985352,36.5327148
		c-4.046875,6.9326172-13.0561523,24.9296875-13.9482422,26.6933594
		c-11.9765625,23.4775391-21.628418,38.546875-36.6987305,38.5664063H24v24.9091797h53.3046875
		c24.3681641-0.0205078,39.105957-16.9785156,50.6254883-36.7832031
		c3.9863281-6.8271484,12.9946289-24.8232422,13.9492188-26.6923828
		C153.8984375,131.253418,163.6328125,116.1831055,178.9726563,116.1831055z"/>
</g>
</svg>
